# xmcd
#
# Track frame offsets: 
#        150
#        17308
#        43613
#        59394
#        75018
#        89972
#        111717
#        128447
#        147513
#        161658
#        183399
#        202575
#        221973
#        243281
#        260054
#        282222
#
# Disc length: 4055 seconds
#
# Revision: 2
# Processed by: cddbd v1.4PL0 Copyright (c) Steve Scherf et al.
# Submitted via: ExactAudioCopy v0.90b2
#
DISCID=e30fd510
DTITLE=Ryszard Rynkowski - GOLD
DYEAR=1900
DGENRE=Blues
TTITLE0=zwierzenie Ryska
TTITLE1=szczesliwej drogi juz czas
TTITLE2=zabiore Cie Magdaleno
TTITLE3=czemu nie tancze na ulicach
TTITLE4=swobodny blues
TTITLE5=wyspa
TTITLE6=sposoby na kobiety
TTITLE7=bananowy song
TTITLE8=rycz mala rycz
TTITLE9=wezcie chlopaki ten kraj
TTITLE10=kochanie bye,bye
TTITLE11=inny nie bede
TTITLE12=nie budzcie marzen ze snow
TTITLE13=bez milosci
TTITLE14=wszystko juz bylo
TTITLE15=wypijmy za bledy
EXTD=ID3G: 0
EXTT0=
EXTT1=
EXTT2=
EXTT3=
EXTT4=
EXTT5=
EXTT6=
EXTT7=
EXTT8=
EXTT9=
EXTT10=
EXTT11=
EXTT12=
EXTT13=
EXTT14=
EXTT15=
PLAYORDER=
